<svg width="285" height="255" viewBox="0 0 285 255" fill="none" xmlns="http://www.w3.org/2000/svg">
<rect width="285" height="255" fill="#42A5F5"/>
<path d="M206.282 139.038L218.839 83.7879C219.745 79.7987 216.713 76 212.622 76H108.29L105.855 64.0973C105.248 61.1306 102.638 59 99.6093 59H72.375C68.8541 59 66 61.8541 66 65.375V69.625C66 73.1459 68.8541 76 72.375 76H90.9377L109.597 167.225C105.133 169.792 102.125 174.606 102.125 180.125C102.125 188.34 108.785 195 117 195C125.215 195 131.875 188.34 131.875 180.125C131.875 175.962 130.163 172.2 127.406 169.5H183.094C180.338 172.2 178.625 175.962 178.625 180.125C178.625 188.34 185.285 195 193.5 195C201.715 195 208.375 188.34 208.375 180.125C208.375 174.236 204.952 169.146 199.987 166.736L201.452 160.288C202.359 156.299 199.327 152.5 195.236 152.5H123.937L122.199 144H200.065C203.042 144 205.622 141.94 206.282 139.038Z" fill="white"/>
<circle cx="229" cy="48" r="23" fill="black"/>
<path d="M233.085 60.0296H236.315V60.9524H222.472V60.0296H226.163V37.8353L222.426 39.2657L222.149 38.389L231.424 34.0978H233.085V60.0296Z" fill="white"/>
</svg>
